{"glyphs":{":":{"x_min":0,"x_max":175,"ha":175,"o":"m 76 276 q 78 287 86 295 q 95 303 106 303 q 117 303 124 295 q 130 287 128 276 q 127 265 118 258 q 109 250 98 250 q 87 250 80 258 q 74 265 76 276 z m 41 26 q 42 37 51 45 q 60 53 71 53 q 82 53 88 45 q 95 37 93 26 q 91 15 82 8 q 74 0 63 0 q 52 0 46 8 q 39 15 41 26 z"},"$":{"x_min":0,"x_max":567,"ha":567,"o":"m 394 546 l 407 643 q 391 656 364 666 q 337 675 298 677 l 257 384 q 291 373 324 360 q 358 348 384 327 q 409 306 422 272 q 435 238 429 186 q 424 143 404 108 q 383 73 352 48 q 321 23 282 8 q 243 -6 201 -8 l 193 -68 l 166 -68 l 174 -7 q 138 -6 109 2 q 80 11 59 22 q 38 34 24 47 q 9 60 2 70 l 16 173 l 43 173 l 30 83 q 53 57 88 40 q 124 22 178 20 l 226 362 q 197 371 170 382 q 143 393 123 410 q 103 427 92 452 q 82 478 86 517 q 89 549 102 581 q 115 613 138 640 q 162 666 196 684 q 230 701 275 703 l 283 764 l 310 764 l 302 704 q 334 702 371 692 q 408 683 436 657 l 421 546 z m 400 183 q 406 227 396 256 q 385 285 364 304 q 342 322 313 334 q 284 345 253 354 l 205 20 q 239 22 272 34 q 305 46 332 67 q 359 88 377 118 q 395 147 400 183 z m 115 527 q 110 495 118 473 q 126 451 142 436 q 159 420 182 410 q 204 400 230 392 l 271 675 q 237 673 210 660 q 182 647 162 627 q 143 607 131 581 q 119 555 115 527 z"},"?":{"x_min":0,"x_max":452,"ha":452,"o":"m 87 587 q 81 589 75 591 q 69 593 63 595 q 76 622 96 647 q 117 672 144 691 q 170 710 202 721 q 234 732 270 732 q 311 732 345 716 q 379 701 402 674 q 424 648 434 612 q 445 577 439 537 q 431 483 399 442 q 367 401 317 369 q 297 355 279 346 q 261 336 246 324 q 232 311 222 292 q 212 274 207 242 l 196 164 l 168 164 l 182 261 q 186 292 200 311 q 214 330 234 345 q 255 360 280 374 q 305 387 332 408 q 367 435 386 468 q 406 500 411 537 q 416 573 408 604 q 399 634 380 656 q 360 679 331 692 q 302 705 267 705 q 208 705 160 673 q 111 641 87 587 z m 162 20 q 153 20 146 28 q 139 35 141 46 q 142 58 151 66 q 160 73 169 73 q 179 73 186 66 q 194 58 192 46 q 190 35 181 28 q 172 20 162 20 z"},"<":{"x_min":0,"x_max":680,"ha":680,"o":"m 522 21 l 517 -15 q 416 48 316 112 q 216 175 115 238 q 233 301 351 364 q 469 428 588 491 l 583 455 q 481 401 380 346 q 278 292 175 238 q 262 184 348 130 q 434 75 522 21 z"},"'":{"x_min":0,"x_max":150,"ha":150,"o":"m 44 472 l 79 720 l 110 720 q 100 657 90 596 q 81 535 71 472 z"},"=":{"x_min":0,"x_max":708,"ha":708,"o":"m 594 170 l 590 142 l 84 142 l 88 170 z m 621 364 l 617 336 l 111 336 l 115 364 z"},"a":{"x_min":0,"x_max":535,"ha":535,"o":"m 62 188 q 68 228 88 264 q 108 299 138 326 q 168 352 206 368 q 244 383 285 383 q 315 383 340 374 q 366 366 386 351 q 406 336 420 316 q 434 296 440 274 q 443 299 448 324 q 453 349 458 375 l 479 375 l 430 27 l 504 27 l 500 0 l 401 0 l 408 47 q 410 61 412 74 q 414 88 416 102 q 404 80 385 60 q 366 40 342 25 q 318 10 290 2 q 261 -7 230 -7 q 189 -7 156 8 q 122 24 100 50 q 77 76 66 112 q 56 147 62 188 z m 90 188 q 85 153 94 122 q 102 92 122 70 q 141 47 170 34 q 198 21 233 21 q 268 21 301 34 q 334 47 360 70 q 386 92 404 122 q 421 153 426 188 q 431 223 422 254 q 413 284 394 307 q 374 330 345 343 q 316 356 281 356 q 246 356 214 343 q 181 330 155 307 q 129 284 112 254 q 95 223 90 188 z"},"L":{"x_min":0,"x_max":567,"ha":567,"o":"m 38 27 l 111 27 l 202 673 l 129 673 l 133 700 l 317 700 l 313 673 l 230 673 l 139 27 l 508 27 l 526 154 l 553 154 l 532 0 l 35 0 z"},"3":{"x_min":0,"x_max":515,"ha":515,"o":"m 177 354 l 413 622 l 172 622 l 163 559 l 136 559 l 149 650 l 470 650 l 247 401 q 290 400 326 384 q 361 369 386 342 q 410 315 422 278 q 433 241 427 198 q 421 155 399 118 q 377 80 345 52 q 313 24 273 8 q 233 -8 190 -8 q 145 -8 109 10 q 73 28 49 59 l 72 81 q 91 54 122 36 q 153 19 192 19 q 229 19 264 34 q 299 48 328 72 q 356 97 375 130 q 394 162 399 198 q 404 235 394 268 q 384 300 362 324 q 341 348 310 362 q 279 376 242 376 q 225 376 208 370 q 192 364 177 354 z"},";":{"x_min":0,"x_max":201,"ha":201,"o":"m 109 276 q 111 287 120 295 q 128 303 139 303 q 149 303 156 295 q 163 287 162 276 q 160 265 151 258 q 142 250 132 250 q 121 250 114 258 q 107 265 109 276 z m 118 86 q 89 34 61 -17 q 33 -68 4 -120 l -22 -120 q 4 -68 30 -17 q 56 34 83 86 z"},"J":{"x_min":0,"x_max":266,"ha":266,"o":"m 93 700 l 289 700 l 203 90 q 195 34 174 -8 q 152 -51 122 -80 q 91 -109 54 -125 q 16 -141 -24 -142 l -21 -115 q 15 -113 48 -98 q 81 -84 107 -58 q 133 -31 151 7 q 169 45 175 93 l 258 673 l 89 673 z"},"V":{"x_min":0,"x_max":837,"ha":837,"o":"m 137 700 l 325 700 l 321 673 l 246 673 q 290 518 333 365 q 376 212 421 57 l 426 30 l 439 57 q 526 212 612 365 q 698 518 785 673 l 713 673 l 717 700 l 904 700 l 900 673 l 814 673 q 715 495 616 320 q 517 145 417 -32 q 367 145 317 320 q 267 495 216 673 l 133 673 z"},"\"":{"x_min":0,"x_max":301,"ha":301,"o":"m 178 472 l 213 720 l 244 720 q 234 657 224 596 q 215 535 205 472 z m 45 472 l 80 720 l 111 720 q 101 657 92 596 q 82 535 72 472 z"},"7":{"x_min":0,"x_max":469,"ha":469,"o":"m 462 650 l 79 0 l 46 0 l 414 622 l 82 622 l 74 559 l 47 559 l 59 650 z"},"S":{"x_min":0,"x_max":478,"ha":478,"o":"m 52 70 l 66 173 l 93 173 l 80 83 q 105 56 144 38 q 182 19 240 19 q 276 19 312 30 q 347 42 376 63 q 405 84 425 114 q 445 145 450 183 q 456 228 446 258 q 435 287 412 306 q 390 324 360 336 q 330 347 298 356 q 266 366 236 376 q 205 387 182 404 q 158 421 145 448 q 132 475 136 517 q 139 550 153 584 q 167 617 192 644 q 218 671 254 688 q 291 704 339 704 q 373 704 414 695 q 455 686 486 657 l 471 546 l 444 546 l 457 643 q 440 657 410 667 q 379 677 334 677 q 297 677 268 664 q 238 652 216 631 q 195 610 182 583 q 169 556 165 527 q 160 489 172 464 q 184 440 207 424 q 230 409 260 399 q 291 389 324 379 q 356 369 386 356 q 417 343 440 322 q 462 301 474 268 q 485 235 479 186 q 473 142 452 106 q 430 70 398 44 q 366 19 325 6 q 284 -8 241 -8 q 201 -8 170 0 q 138 8 115 20 q 92 32 76 46 q 60 59 52 70 z"},"}":{"x_min":0,"x_max":320,"ha":320,"o":"m 356 316 l 350 281 q 320 279 302 260 q 283 241 272 215 q 261 189 256 162 q 251 135 248 117 l 228 -30 q 222 -76 210 -100 q 199 -125 184 -136 q 170 -146 154 -147 q 137 -148 119 -148 l 76 -148 l 80 -121 l 135 -121 q 166 -121 180 -96 q 194 -72 202 -11 l 227 165 q 232 198 242 221 q 252 244 264 260 q 276 275 289 284 q 302 293 312 299 q 300 306 290 316 q 279 326 272 344 q 266 362 264 390 q 263 419 269 463 l 289 608 q 297 670 290 694 q 284 719 253 719 l 199 719 l 202 746 l 245 746 q 263 746 279 745 q 295 744 306 734 q 318 723 322 698 q 326 674 320 628 l 300 480 q 297 462 294 434 q 292 407 296 382 q 299 356 312 336 q 326 317 356 316 z"},"Z":{"x_min":0,"x_max":629,"ha":629,"o":"m 620 188 l 594 0 l 35 0 l 38 27 l 623 673 l 146 673 l 155 735 l 184 735 l 179 700 l 663 700 l 659 673 l 74 27 l 570 27 l 593 188 z"},"x":{"x_min":0,"x_max":496,"ha":496,"o":"m 87 375 l 271 375 l 267 348 l 192 348 l 276 206 l 398 348 l 330 348 l 334 375 l 513 375 l 509 348 l 431 348 l 290 183 q 313 144 336 106 q 359 67 382 27 l 464 27 l 461 0 l 277 0 l 280 27 l 348 27 q 327 63 306 98 q 286 132 266 167 q 236 132 206 97 q 176 62 146 27 l 217 27 l 214 0 l 35 0 l 38 27 l 111 27 q 146 68 182 108 q 217 148 252 190 q 228 230 204 269 q 180 308 157 348 l 83 348 z"},")":{"x_min":0,"x_max":400,"ha":400,"o":"m 286 291 q 275 216 252 148 q 228 80 196 22 q 165 -36 129 -84 q 93 -131 57 -164 q 53 -158 50 -152 q 46 -147 43 -141 q 76 -108 110 -63 q 144 -18 174 37 q 203 92 225 156 q 247 220 257 291 q 267 362 263 426 q 259 490 245 545 q 231 600 210 645 q 188 690 164 723 q 169 729 174 734 q 179 740 184 746 q 211 713 234 666 q 257 618 272 560 q 287 502 292 434 q 296 366 286 291 z"},"&":{"x_min":0,"x_max":700,"ha":700,"o":"m 468 375 l 600 375 l 596 348 l 492 348 l 482 270 q 476 227 468 182 q 461 136 433 96 l 481 -4 l 457 -19 l 414 70 q 382 35 338 14 q 295 -7 247 -7 q 206 -7 172 8 q 139 23 116 50 q 94 76 84 111 q 73 146 79 187 q 84 223 101 256 q 118 288 144 314 q 169 339 201 356 q 233 373 268 379 l 213 496 q 199 526 196 558 q 194 590 203 621 q 212 652 234 679 q 256 706 292 726 q 323 743 352 746 q 382 750 409 745 q 436 740 460 729 q 483 718 500 706 l 485 682 q 466 694 445 704 q 424 715 402 720 q 379 724 355 721 q 331 718 306 704 q 243 667 228 612 q 214 558 238 506 l 415 133 q 426 149 434 167 q 442 185 445 205 z m 107 187 q 102 152 110 122 q 119 91 138 68 q 158 46 187 33 q 216 20 251 20 q 296 20 336 40 q 376 61 402 96 l 281 353 q 248 350 218 336 q 189 322 166 300 q 142 278 126 249 q 111 220 107 187 z"},"_":{"x_min":0,"x_max":600,"ha":600,"o":"m 498 0 l 98 0 l 101 27 l 501 27 z"},"v":{"x_min":0,"x_max":589,"ha":589,"o":"m 90 375 l 263 375 l 259 348 l 190 348 q 219 269 248 190 q 277 110 304 30 q 350 105 402 186 q 454 267 506 348 l 448 348 l 452 375 l 609 375 l 605 348 l 536 348 q 476 254 416 162 q 356 71 297 -23 q 262 71 228 162 q 194 254 161 348 l 86 348 z"},"O":{"x_min":0,"x_max":786,"ha":786,"o":"m 85 349 q 95 423 132 488 q 170 554 225 602 q 280 651 349 680 q 418 708 492 708 q 566 708 628 680 q 689 651 731 602 q 773 554 792 488 q 811 423 801 349 q 790 275 753 210 q 716 145 660 96 q 605 48 536 20 q 466 -8 392 -8 q 318 -8 257 20 q 196 48 154 96 q 112 145 93 210 q 74 275 85 349 z m 113 348 q 103 280 120 220 q 138 160 176 116 q 214 71 270 45 q 325 19 393 19 q 461 19 526 45 q 590 71 642 116 q 693 161 728 221 q 763 281 773 349 q 782 417 764 478 q 747 538 708 583 q 669 628 612 654 q 556 681 488 681 q 420 681 356 654 q 293 628 242 583 q 191 538 156 478 q 122 417 113 348 z"},"(":{"x_min":0,"x_max":400,"ha":400,"o":"m 141 292 q 151 367 174 435 q 198 503 230 561 q 261 619 297 666 q 333 714 369 747 q 372 741 376 736 q 379 730 383 724 q 350 691 316 646 q 282 601 252 546 q 223 491 201 427 q 179 363 169 292 q 159 221 163 157 q 167 93 181 38 q 195 -17 216 -62 q 238 -107 262 -140 q 257 -146 252 -152 q 247 -157 242 -163 q 215 -130 192 -82 q 169 -35 154 23 q 139 81 134 149 q 130 217 141 292 z"},"C":{"x_min":0,"x_max":610,"ha":610,"o":"m 625 546 l 639 641 q 573 681 488 681 q 420 681 356 654 q 293 628 242 583 q 191 538 156 478 q 122 417 113 348 q 103 280 120 220 q 138 160 176 116 q 214 71 270 45 q 325 19 393 19 q 439 19 483 31 q 527 43 567 65 l 581 42 q 537 19 490 6 q 443 -8 392 -8 q 318 -8 257 20 q 196 48 154 96 q 112 145 93 210 q 74 275 85 349 q 95 423 132 488 q 170 554 225 602 q 280 651 349 680 q 418 708 492 708 q 543 708 587 695 q 631 682 668 658 l 652 546 z"},"W":{"x_min":0,"x_max":1212,"ha":1212,"o":"m 137 700 l 325 700 l 321 673 l 246 673 q 289 518 332 364 q 375 211 421 57 l 426 30 q 477 135 538 236 q 598 338 655 441 q 639 499 622 556 q 606 614 589 673 l 508 673 l 511 700 l 699 700 l 695 673 l 618 673 q 661 518 704 364 q 747 211 793 57 l 798 30 l 811 57 q 898 212 984 365 q 1070 518 1158 673 l 1087 673 l 1091 700 l 1279 700 l 1275 673 l 1186 673 q 1087 495 988 320 q 889 145 790 -32 l 671 385 l 665 410 q 606 299 542 188 q 479 78 417 -32 q 367 145 317 320 q 267 495 216 673 l 133 673 z"},"A":{"x_min":0,"x_max":820,"ha":820,"o":"m 38 27 l 114 27 q 214 204 313 379 q 412 554 512 732 q 563 554 612 379 q 662 204 712 27 l 788 27 l 785 0 l 601 0 l 604 27 l 683 27 q 663 97 644 167 q 624 237 604 308 l 302 308 q 262 237 223 167 q 184 97 143 27 l 222 27 l 219 0 l 35 0 z m 509 643 l 504 670 q 503 668 500 664 q 498 660 496 655 l 490 643 q 453 573 408 493 q 362 413 318 335 l 596 335 z"},"f":{"x_min":0,"x_max":292,"ha":292,"o":"m 38 27 l 99 27 l 144 348 l 83 348 l 87 375 l 148 375 l 168 518 q 176 573 198 616 q 219 659 250 688 q 280 717 318 732 q 356 748 397 750 l 393 723 q 359 723 326 708 q 294 694 267 668 q 240 642 222 604 q 203 567 196 520 l 176 375 l 303 375 l 299 348 l 172 348 l 127 27 l 222 27 l 219 0 l 35 0 z"},"Q":{"x_min":0,"x_max":808,"ha":808,"o":"m 113 348 q 103 280 120 220 q 138 160 176 116 q 214 71 270 45 q 325 19 393 19 q 461 19 526 45 q 590 71 642 116 q 693 161 728 221 q 763 281 773 349 q 782 417 764 478 q 747 538 708 583 q 669 628 612 654 q 556 681 488 681 q 420 681 356 654 q 293 628 242 583 q 191 538 156 478 q 122 417 113 348 z m 85 349 q 95 423 132 488 q 170 554 225 602 q 280 651 349 680 q 418 708 492 708 q 566 708 628 680 q 689 651 731 602 q 773 554 792 488 q 811 423 801 349 q 793 295 770 245 q 748 195 714 154 q 680 112 636 80 q 592 47 543 27 l 778 27 l 774 0 l 467 0 q 427 -8 392 -8 q 318 -8 257 20 q 196 48 154 96 q 112 145 93 210 q 74 275 85 349 z"},"w":{"x_min":0,"x_max":854,"ha":854,"o":"m 720 375 l 874 375 l 870 348 l 804 348 q 744 254 685 162 q 626 71 568 -23 l 469 250 l 296 -23 q 261 71 228 162 q 194 254 162 348 l 86 348 l 90 375 l 260 375 l 256 348 l 190 348 q 219 268 247 188 q 275 109 303 30 q 339 89 376 147 q 412 205 449 263 q 443 284 438 305 q 432 326 427 348 l 358 348 l 362 375 l 535 375 l 531 348 l 462 348 q 491 268 519 188 q 547 109 575 30 q 624 111 674 190 q 724 268 775 348 l 716 348 z"},"-":{"x_min":0,"x_max":300,"ha":300,"o":"m 51 177 l 54 204 l 238 204 l 235 177 z"},"E":{"x_min":0,"x_max":571,"ha":571,"o":"m 38 27 l 115 27 l 206 673 l 129 673 l 133 700 l 620 700 l 598 546 l 571 546 l 589 673 l 234 673 l 191 366 l 534 366 l 530 339 l 187 339 l 143 27 l 512 27 l 530 154 l 557 154 l 536 0 l 35 0 z"},"s":{"x_min":0,"x_max":318,"ha":318,"o":"m 93 97 l 86 42 q 104 27 128 23 q 152 19 175 19 q 187 19 203 24 q 219 29 234 39 q 248 49 260 64 q 271 79 274 100 q 278 128 266 144 q 254 159 234 168 q 214 178 190 184 q 166 191 146 201 q 126 211 114 228 q 102 246 107 278 q 110 303 122 322 q 134 341 151 354 q 168 367 188 374 q 207 380 226 380 q 228 380 240 380 q 252 379 267 376 q 282 373 298 366 q 313 360 322 348 l 312 278 l 286 278 l 294 334 q 287 341 276 345 q 264 349 253 350 q 242 352 233 352 q 224 353 221 353 q 209 353 195 349 q 181 345 168 337 q 156 329 147 315 q 138 301 135 282 q 132 256 144 242 q 156 228 176 219 q 197 210 220 203 q 244 196 264 184 q 284 173 296 154 q 307 136 303 103 q 300 85 290 66 q 281 46 264 30 q 248 13 224 2 q 200 -8 169 -8 q 161 -8 147 -7 q 133 -6 116 -2 q 100 2 84 8 q 68 15 58 27 l 67 97 z"},">":{"x_min":0,"x_max":650,"ha":650,"o":"m 79 -15 l 84 21 q 187 75 288 130 q 390 184 493 238 q 405 292 319 346 q 233 401 145 455 l 150 491 q 251 428 351 364 q 451 301 553 238 q 434 175 316 112 q 198 48 79 -15 z"},"l":{"x_min":0,"x_max":254,"ha":254,"o":"m 38 27 l 111 27 l 209 723 l 137 723 l 141 750 l 241 750 l 139 27 l 222 27 l 219 0 l 35 0 z"},"8":{"x_min":0,"x_max":510,"ha":510,"o":"m 159 508 q 156 485 162 466 q 169 446 183 432 q 197 418 218 410 q 239 402 264 402 q 315 402 352 432 q 390 462 397 508 q 400 533 394 555 q 388 577 374 594 q 361 611 341 621 q 321 631 296 631 q 271 631 248 621 q 224 611 206 594 q 187 577 174 555 q 162 533 159 508 z m 59 198 q 54 162 64 130 q 73 97 93 72 q 113 48 143 34 q 173 19 210 19 q 247 19 282 34 q 317 48 345 72 q 373 97 392 130 q 411 162 416 198 q 421 234 412 266 q 402 298 380 322 q 359 346 328 360 q 297 373 260 373 q 223 373 189 360 q 155 346 128 322 q 101 298 83 266 q 65 234 59 198 z m 31 198 q 36 232 51 262 q 66 293 88 318 q 110 343 138 362 q 167 380 199 389 q 164 404 144 438 q 125 471 132 514 q 136 544 151 570 q 166 596 188 616 q 211 635 240 646 q 268 658 298 658 q 329 658 354 646 q 379 635 396 615 q 414 595 422 568 q 429 541 425 511 q 419 469 392 437 q 364 405 325 389 q 355 380 380 362 q 404 344 420 319 q 436 294 442 263 q 449 232 444 198 q 438 155 416 118 q 395 80 362 52 q 330 24 290 8 q 250 -8 208 -8 q 166 -8 130 8 q 95 24 71 52 q 47 80 36 118 q 25 155 31 198 z"},"\\":{"x_min":0,"x_max":333,"ha":333,"o":"m 97 736 q 140 546 182 358 q 225 171 268 -19 l 238 -19 q 195 171 152 358 q 110 546 67 736 z"},"e":{"x_min":0,"x_max":438,"ha":438,"o":"m 280 356 q 239 356 202 338 q 166 320 140 291 q 113 262 99 224 q 85 186 89 147 q 168 177 246 206 q 325 236 403 266 q 389 306 357 331 q 325 356 280 356 z m 436 251 q 350 218 265 186 q 180 154 94 121 q 107 76 144 48 q 180 21 233 21 q 267 21 298 33 q 329 45 354 66 q 358 61 362 56 q 365 51 369 46 q 339 21 304 7 q 269 -7 230 -7 q 189 -7 156 8 q 123 24 100 50 q 77 76 66 112 q 56 147 62 188 q 68 228 88 264 q 108 300 138 326 q 168 352 206 368 q 243 383 284 383 q 344 383 384 346 q 425 309 436 251 z"},"b":{"x_min":0,"x_max":535,"ha":535,"o":"m 39 27 l 113 27 l 211 723 l 139 723 l 143 750 l 242 750 l 183 329 q 181 315 178 302 q 176 288 173 274 q 185 296 204 316 q 224 336 248 351 q 272 366 300 374 q 329 383 359 383 q 400 383 434 368 q 467 352 490 326 q 512 300 522 264 q 533 228 527 188 q 521 147 501 112 q 481 76 451 50 q 421 24 384 8 q 346 -7 305 -7 q 274 -7 248 2 q 222 10 202 25 q 181 40 168 60 q 154 80 148 102 q 146 88 145 74 q 144 61 142 47 l 135 0 l 35 0 z m 499 188 q 504 223 496 254 q 487 284 468 307 q 448 330 419 343 q 390 356 355 356 q 320 356 288 343 q 255 330 229 307 q 203 284 186 254 q 168 223 163 188 q 158 153 167 122 q 176 92 196 70 q 215 47 244 34 q 273 21 308 21 q 343 21 376 34 q 408 47 434 70 q 459 92 476 122 q 494 153 499 188 z"},"%":{"x_min":0,"x_max":726,"ha":726,"o":"m 416 112 q 414 94 418 78 q 423 63 433 52 q 443 40 458 34 q 472 27 490 27 q 508 27 524 34 q 541 40 554 52 q 568 63 576 78 q 585 94 588 112 q 592 147 570 172 q 549 197 514 197 q 496 197 480 190 q 463 184 450 172 q 436 161 428 146 q 419 130 416 112 z m 486 0 q 463 0 444 9 q 424 18 410 33 q 397 48 391 68 q 385 89 388 113 q 392 136 404 156 q 416 177 434 192 q 451 207 473 216 q 495 224 518 224 q 541 224 560 216 q 580 207 594 192 q 607 177 613 156 q 619 136 616 113 q 613 89 600 68 q 588 48 570 33 q 553 18 531 9 q 509 0 486 0 z m 151 388 q 149 370 154 355 q 158 340 168 328 q 178 317 192 310 q 207 304 225 304 q 243 304 260 310 q 276 317 290 328 q 303 340 312 355 q 320 370 323 388 q 327 423 306 448 q 284 473 249 473 q 231 473 214 466 q 198 460 184 448 q 171 437 162 422 q 154 406 151 388 z m 221 276 q 198 276 178 285 q 159 294 146 309 q 132 324 126 344 q 120 365 123 389 q 126 412 138 432 q 150 453 168 468 q 186 483 208 492 q 230 501 253 501 q 276 501 295 492 q 314 483 328 468 q 341 453 348 432 q 354 412 351 389 q 347 365 335 344 q 323 324 305 309 q 287 294 266 285 q 244 276 221 276 z m 165 0 q 258 126 350 250 q 441 374 534 500 l 565 500 q 472 374 380 250 q 289 126 196 0 z"},"m":{"x_min":0,"x_max":814,"ha":814,"o":"m 598 27 l 677 27 l 711 268 q 714 303 694 328 q 675 353 632 355 q 600 355 570 344 q 540 334 516 316 q 491 298 474 272 q 457 247 451 217 l 424 27 l 502 27 l 499 0 l 315 0 l 318 27 l 397 27 l 430 268 q 434 303 414 328 q 394 353 352 355 q 320 355 289 344 q 258 334 234 315 q 209 296 192 270 q 175 243 170 212 l 144 27 l 222 27 l 219 0 l 35 0 l 38 27 l 116 27 l 162 348 l 88 348 l 92 375 l 186 375 l 182 331 q 180 316 179 304 q 178 292 176 277 q 204 325 252 354 q 299 382 356 382 q 406 382 433 354 q 460 327 459 282 q 487 327 534 354 q 581 382 636 382 q 690 382 718 351 q 745 320 739 270 l 705 27 l 782 27 l 779 0 l 595 0 z"},"#":{"x_min":0,"x_max":571,"ha":571,"o":"m 201 400 q 190 361 180 322 q 171 284 161 245 l 317 245 q 327 284 336 322 q 346 361 357 400 z m 253 0 q 267 55 281 109 q 295 163 309 218 l 153 218 q 139 163 125 109 q 111 55 97 0 l 69 0 q 83 55 97 109 q 111 163 125 218 l 13 218 q 15 225 16 232 q 18 238 20 245 l 133 245 q 143 284 152 322 q 162 361 173 400 l 62 400 q 63 407 64 414 q 66 420 68 427 l 180 427 l 237 643 l 265 643 l 208 427 l 364 427 l 421 643 l 449 643 l 392 427 l 521 427 l 515 400 l 385 400 q 374 361 364 322 q 355 284 345 245 l 473 245 q 471 238 470 232 q 468 225 466 218 l 337 218 q 323 163 309 109 q 295 55 281 0 z"},",":{"x_min":0,"x_max":200,"ha":200,"o":"m 148 86 q 119 34 90 -17 q 62 -68 33 -120 l 7 -120 q 34 -68 60 -17 q 86 34 113 86 z"},"n":{"x_min":0,"x_max":534,"ha":534,"o":"m 318 27 l 397 27 l 430 268 q 434 303 414 328 q 394 353 352 355 q 320 355 289 344 q 258 334 234 315 q 209 296 192 270 q 175 243 170 212 l 144 27 l 222 27 l 219 0 l 35 0 l 38 27 l 116 27 l 162 348 l 88 348 l 92 375 l 186 375 l 182 331 q 180 316 179 304 q 178 292 176 277 q 203 325 251 354 q 299 382 356 382 q 410 382 437 351 q 464 320 459 270 l 424 27 l 502 27 l 499 0 l 315 0 z"},"h":{"x_min":0,"x_max":534,"ha":534,"o":"m 318 27 l 397 27 l 430 268 q 434 303 414 328 q 394 353 352 355 q 320 355 289 344 q 258 334 234 315 q 209 296 192 270 q 175 243 170 212 l 144 27 l 222 27 l 219 0 l 35 0 l 38 27 l 116 27 l 215 723 l 141 723 l 145 750 l 246 750 l 186 322 l 176 277 q 204 325 252 354 q 299 382 356 382 q 410 382 437 351 q 464 320 459 270 l 424 27 l 502 27 l 499 0 l 315 0 z"},"z":{"x_min":0,"x_max":430,"ha":430,"o":"m 406 80 l 395 0 l 35 0 l 38 27 q 129 108 213 188 q 297 267 387 348 l 95 348 l 104 410 l 130 410 l 125 375 l 429 375 l 425 348 q 335 267 251 188 q 167 108 76 27 l 372 27 l 380 80 z"},"B":{"x_min":0,"x_max":521,"ha":521,"o":"m 38 27 l 104 27 l 195 673 l 129 673 l 133 700 l 351 700 q 397 700 434 690 q 471 680 495 659 q 519 638 530 604 q 540 571 533 525 q 525 463 487 416 q 449 369 383 352 q 412 346 438 332 q 463 318 481 296 q 499 274 508 245 q 516 216 511 180 q 505 135 482 102 q 459 68 426 46 q 393 23 353 12 q 313 0 271 0 l 35 0 z m 176 338 l 132 27 l 272 27 q 311 27 346 36 q 382 46 410 65 q 439 84 458 113 q 478 142 483 180 q 489 221 476 251 q 462 281 436 300 q 410 320 374 329 q 338 338 298 338 z m 223 673 l 180 365 l 319 365 q 356 365 388 376 q 420 388 444 409 q 469 430 484 460 q 500 489 505 525 q 511 565 502 593 q 494 621 474 639 q 455 657 425 665 q 395 673 358 673 z"},"K":{"x_min":0,"x_max":686,"ha":686,"o":"m 470 27 l 534 27 q 473 121 412 215 q 352 309 291 404 l 183 314 q 172 242 163 170 q 154 99 143 27 l 226 27 l 223 0 l 35 0 l 38 27 l 115 27 l 206 673 l 129 673 l 133 700 l 317 700 l 313 673 l 234 673 l 192 373 q 190 365 188 358 q 187 352 186 344 l 207 364 l 574 673 l 515 673 l 519 700 l 702 700 l 699 673 l 612 673 l 313 422 q 378 322 442 224 q 505 126 569 27 l 654 27 l 651 0 l 467 0 z"},"R":{"x_min":0,"x_max":570,"ha":570,"o":"m 38 27 l 104 27 l 195 673 l 129 673 l 133 700 l 344 700 q 374 700 408 690 q 443 680 472 658 q 500 637 516 602 q 533 568 526 520 q 516 449 470 402 q 425 355 349 340 l 452 27 l 538 27 l 535 0 l 433 0 l 320 338 q 297 335 273 335 l 175 335 l 132 27 l 226 27 l 223 0 l 35 0 z m 179 362 l 288 362 q 343 362 382 377 q 420 392 445 416 q 470 439 482 466 q 495 494 498 520 q 502 550 492 578 q 481 606 459 627 q 437 648 405 660 q 373 673 333 673 l 223 673 z"},"T":{"x_min":0,"x_max":623,"ha":623,"o":"m 220 27 l 300 27 l 392 673 l 156 673 l 138 546 l 111 546 l 133 700 l 686 700 l 664 546 l 637 546 l 655 673 l 419 673 l 328 27 l 408 27 l 405 0 l 217 0 z"},"P":{"x_min":0,"x_max":488,"ha":488,"o":"m 38 27 l 104 27 l 195 673 l 129 673 l 133 700 l 344 700 q 374 700 408 690 q 443 680 472 658 q 500 637 516 602 q 533 568 526 520 q 514 435 452 385 q 389 335 286 335 l 175 335 l 132 27 l 226 27 l 223 0 l 35 0 z m 179 362 l 288 362 q 343 362 382 377 q 420 392 445 416 q 470 439 482 466 q 495 494 498 520 q 502 550 492 578 q 481 606 459 627 q 437 648 405 660 q 373 673 333 673 l 223 673 z"},"|":{"x_min":0,"x_max":229,"ha":229,"o":"m 97 -232 l 227 700 l 255 700 l 125 -232 z"},"t":{"x_min":0,"x_max":307,"ha":307,"o":"m 209 619 l 237 619 l 203 375 l 324 375 l 320 348 l 199 348 l 154 27 l 238 27 l 235 0 l 123 0 l 171 348 l 83 348 l 87 375 l 175 375 z"},"M":{"x_min":0,"x_max":964,"ha":964,"o":"m 921 700 l 1023 700 l 1019 673 l 940 673 l 849 27 l 932 27 l 929 0 l 741 0 l 744 27 l 821 27 l 903 610 q 903 611 904 617 q 906 623 907 630 q 908 638 909 644 q 910 651 910 652 q 907 647 895 634 q 879 616 852 587 q 826 558 793 522 q 760 485 722 444 q 685 402 648 360 q 610 319 574 280 q 538 240 509 207 q 462 283 424 344 q 386 404 354 455 q 322 506 294 550 q 267 594 240 637 l 231 652 q 230 641 230 631 q 229 621 227 610 l 145 27 l 226 27 l 223 0 l 35 0 l 38 27 l 117 27 l 208 673 l 129 673 l 133 700 l 235 700 q 240 693 256 667 q 272 641 296 604 q 319 567 348 522 q 376 476 406 428 q 435 381 464 336 q 492 291 515 254 q 617 365 718 477 q 819 589 921 700 z"},"g":{"x_min":0,"x_max":536,"ha":536,"o":"m 492 375 l 588 375 l 584 348 l 510 348 l 457 -26 q 449 -79 428 -120 q 408 -161 379 -190 q 350 -218 314 -234 q 278 -249 239 -250 q 197 -248 157 -234 q 117 -221 94 -190 l 118 -171 q 138 -198 172 -210 q 206 -222 241 -222 q 274 -222 306 -208 q 337 -194 362 -168 q 388 -143 406 -107 q 424 -71 430 -27 l 440 47 q 442 61 445 74 q 448 87 450 101 q 425 56 375 25 q 325 -6 264 -6 q 223 -6 190 9 q 156 24 134 50 q 111 77 100 112 q 90 147 96 188 q 102 228 122 264 q 142 299 172 326 q 202 352 240 368 q 278 383 319 383 q 349 383 374 374 q 400 366 420 351 q 440 336 454 316 q 468 296 474 274 q 478 299 482 324 q 487 349 492 375 z m 124 188 q 119 153 128 122 q 136 92 156 70 q 175 47 204 34 q 233 21 268 21 q 303 21 336 34 q 368 47 394 70 q 420 92 438 122 q 455 153 460 188 q 465 223 456 254 q 447 284 428 307 q 408 330 379 343 q 350 356 315 356 q 280 356 248 343 q 215 330 189 307 q 163 284 146 254 q 129 223 124 188 z"},"j":{"x_min":0,"x_max":175,"ha":175,"o":"m 61 375 l 167 375 l 114 -6 q 106 -64 83 -108 q 60 -151 28 -180 l 9 -161 q 38 -135 58 -96 q 78 -58 85 -8 l 135 348 l 58 348 z m 145 504 q 147 515 156 523 q 165 531 176 531 q 186 531 193 523 q 200 515 198 504 q 196 493 188 486 q 179 478 168 478 q 157 478 150 486 q 143 493 145 504 z"},"i":{"x_min":0,"x_max":254,"ha":254,"o":"m 38 27 l 118 27 l 163 348 l 83 348 l 87 375 l 194 375 l 145 27 l 222 27 l 219 0 l 35 0 z m 173 504 q 175 515 184 523 q 192 531 203 531 q 214 531 220 523 q 227 515 226 504 q 224 493 215 486 q 206 478 195 478 q 184 478 178 486 q 171 493 173 504 z"},"y":{"x_min":0,"x_max":595,"ha":595,"o":"m 95 -223 l 178 -223 q 213 -168 248 -112 q 284 -57 319 -3 q 287 85 256 172 q 224 260 193 348 l 118 348 l 122 375 l 295 375 l 291 348 l 224 348 q 253 267 282 187 q 311 107 339 26 q 387 104 439 186 q 491 267 543 348 l 487 348 l 490 375 l 647 375 l 644 348 l 574 348 q 482 205 392 62 q 301 -80 210 -223 l 279 -223 l 276 -250 l 92 -250 z"},"@":{"x_min":0,"x_max":990,"ha":990,"o":"m 321 188 q 316 153 324 122 q 333 92 352 70 q 372 47 401 34 q 430 21 465 21 q 500 21 532 34 q 565 47 591 70 q 617 92 634 122 q 651 153 656 188 q 661 223 652 254 q 644 284 624 307 q 605 330 576 343 q 547 356 512 356 q 477 356 444 343 q 412 330 386 307 q 360 284 343 254 q 326 223 321 188 z m 889 188 q 878 130 860 94 q 841 57 818 36 q 794 15 768 8 q 741 0 716 0 l 632 0 l 639 47 q 641 61 643 74 q 645 88 647 102 q 635 79 616 60 q 597 40 573 26 q 549 11 520 2 q 492 -7 461 -7 q 420 -7 386 8 q 353 24 330 50 q 308 76 298 112 q 287 147 293 188 q 299 228 319 264 q 339 299 369 326 q 399 352 437 368 q 475 383 516 383 q 546 383 572 374 q 597 366 617 351 q 637 336 650 316 q 664 296 670 274 q 674 299 679 324 q 684 349 689 375 l 711 375 l 662 27 l 725 27 q 776 27 812 65 q 847 103 861 188 q 872 266 852 334 q 833 402 790 453 q 746 504 682 534 q 618 563 541 563 q 463 563 391 534 q 319 504 262 453 q 204 402 165 334 q 126 266 115 188 q 104 111 124 43 q 144 -25 188 -76 q 231 -126 295 -156 q 359 -185 436 -185 q 497 -185 554 -166 q 612 -147 663 -115 q 666 -121 670 -126 q 674 -131 677 -136 q 623 -172 560 -192 q 498 -212 432 -212 q 349 -212 280 -180 q 212 -149 166 -94 q 119 -40 98 33 q 76 106 88 189 q 100 272 142 345 q 183 418 245 472 q 307 527 384 558 q 462 590 545 590 q 628 590 696 558 q 765 527 812 472 q 858 418 880 345 q 901 272 889 188 z"},".":{"x_min":0,"x_max":163,"ha":163,"o":"m 59 26 q 61 37 70 45 q 78 53 89 53 q 100 53 107 45 q 114 37 112 26 q 110 15 102 8 q 93 0 82 0 q 71 0 64 8 q 57 15 59 26 z"},"p":{"x_min":0,"x_max":535,"ha":535,"o":"m 1 -223 l 66 -223 l 147 348 l 73 348 l 77 375 l 172 375 q 169 349 166 323 q 164 297 160 271 q 172 293 192 314 q 211 334 236 349 q 260 364 288 373 q 317 382 347 382 q 388 382 422 366 q 455 351 478 325 q 501 299 512 263 q 522 227 516 187 q 510 146 490 110 q 469 75 439 49 q 409 23 371 8 q 333 -8 292 -8 q 231 -8 190 24 q 149 55 137 100 q 136 88 136 76 q 135 64 134 53 l 95 -223 l 184 -223 l 181 -250 l -2 -250 z m 488 187 q 493 222 484 252 q 475 283 456 306 q 436 328 408 341 q 379 354 344 354 q 309 354 276 341 q 244 328 218 306 q 192 283 174 252 q 157 222 152 187 q 147 152 156 122 q 164 91 184 68 q 203 45 232 32 q 261 19 296 19 q 331 19 364 32 q 396 45 422 68 q 448 91 466 122 q 483 152 488 187 z"},"X":{"x_min":0,"x_max":707,"ha":707,"o":"m 133 700 l 321 700 l 317 673 l 259 673 q 295 603 330 534 q 366 464 401 395 l 408 379 l 419 395 l 637 673 l 578 673 l 582 700 l 770 700 l 766 673 l 670 673 q 607 592 546 514 q 484 435 421 355 q 463 272 505 190 q 547 109 589 27 l 675 27 l 672 0 l 484 0 l 487 27 l 554 27 l 427 275 q 419 289 412 306 q 405 322 397 336 l 387 320 q 329 245 272 172 q 214 100 157 27 l 226 27 l 223 0 l 35 0 l 38 27 l 124 27 l 384 359 l 225 673 l 129 673 z"},"*":{"x_min":0,"x_max":335,"ha":335,"o":"m 195 575 q 218 561 242 546 q 266 531 289 517 q 284 510 279 504 q 274 497 269 490 l 176 550 q 171 521 167 492 q 163 463 158 434 l 131 434 l 147 550 q 120 535 93 520 q 66 506 39 492 q 36 499 34 506 q 31 512 28 519 l 136 576 q 113 591 90 606 q 68 621 45 636 q 48 642 52 648 q 57 654 61 660 q 84 645 108 630 q 132 615 155 600 l 172 720 l 203 720 q 198 690 194 660 q 189 630 184 600 q 241 629 296 659 q 299 653 302 647 q 304 641 306 635 z"},"Y":{"x_min":0,"x_max":732,"ha":732,"o":"m 277 27 l 353 27 l 387 264 q 339 367 292 468 q 246 570 199 673 l 129 673 l 133 700 l 321 700 l 317 673 l 233 673 q 275 582 316 494 q 357 405 397 314 l 406 287 l 407 287 l 421 314 l 686 673 l 604 673 l 608 700 l 795 700 l 791 673 l 720 673 q 645 570 570 468 q 494 366 418 263 l 385 27 l 464 27 l 461 0 l 274 0 z"},"c":{"x_min":0,"x_max":389,"ha":389,"o":"m 360 36 q 331 16 298 4 q 265 -7 230 -7 q 189 -7 156 8 q 123 24 100 50 q 77 76 66 112 q 56 147 62 188 q 68 228 88 264 q 108 300 138 326 q 168 352 206 368 q 243 383 284 383 q 320 383 350 372 q 380 360 402 340 l 389 247 l 363 247 l 374 324 q 355 339 332 348 q 308 356 280 356 q 245 356 213 343 q 181 330 155 307 q 129 284 112 254 q 95 223 90 188 q 85 153 94 122 q 102 92 122 70 q 141 47 170 34 q 198 21 233 21 q 264 21 292 30 q 320 40 344 57 z"},"!":{"x_min":0,"x_max":201,"ha":201,"o":"m 49 29 q 39 29 32 36 q 26 44 27 55 q 28 67 38 74 q 47 82 56 82 q 67 82 74 74 q 80 67 79 55 q 77 44 68 36 q 59 29 49 29 z m 136 750 l 164 750 l 82 166 l 54 166 z"},"/":{"x_min":0,"x_max":334,"ha":334,"o":"m -36 -19 q 61 171 156 358 q 251 546 348 736 l 376 736 q 279 546 184 358 q 89 171 -8 -19 z"},"[":{"x_min":0,"x_max":338,"ha":338,"o":"m 20 -149 l 145 746 l 314 746 l 310 719 l 171 719 l 53 -122 l 193 -122 l 189 -149 z"},"6":{"x_min":0,"x_max":520,"ha":520,"o":"m 61 196 q 55 159 64 127 q 74 95 94 71 q 115 47 146 33 q 176 19 213 19 q 250 19 285 33 q 320 47 348 71 q 376 95 395 127 q 414 159 419 196 q 424 233 414 265 q 404 297 383 321 q 362 345 331 359 q 300 373 263 373 q 226 373 192 359 q 158 345 130 321 q 103 297 84 265 q 66 233 61 196 z m 33 194 q 43 266 82 328 q 122 391 178 446 q 233 500 298 546 q 364 593 426 634 q 430 628 434 622 q 437 616 441 611 q 310 531 234 459 q 157 387 125 336 q 152 365 189 383 q 226 401 268 401 q 311 401 346 385 q 382 369 406 341 q 430 313 442 276 q 453 238 447 196 q 441 154 419 117 q 397 80 365 52 q 333 24 293 8 q 253 -8 210 -8 q 168 -8 132 8 q 97 24 73 51 q 49 78 38 115 q 27 152 33 194 z"},"r":{"x_min":0,"x_max":335,"ha":335,"o":"m 38 27 l 116 27 l 162 348 l 88 348 l 92 375 l 186 375 l 182 331 q 180 316 179 304 q 178 292 176 277 q 205 326 254 354 q 302 381 353 382 l 348 355 q 316 354 286 343 q 255 332 231 313 q 207 294 190 268 q 174 242 170 212 l 144 27 l 222 27 l 219 0 l 35 0 z"},"2":{"x_min":0,"x_max":500,"ha":500,"o":"m 79 27 l 388 27 l 404 136 l 431 136 l 411 0 l 6 0 q 79 62 148 122 q 216 182 270 239 q 325 296 360 349 q 396 402 403 449 q 410 501 400 536 q 390 571 370 592 q 350 613 324 622 q 299 631 275 631 q 228 631 195 614 q 162 597 141 572 q 120 548 110 519 q 99 490 95 466 q 86 397 120 354 l 100 338 q 80 361 71 394 q 62 426 67 466 q 73 506 90 541 q 107 576 134 602 q 161 628 198 643 q 234 658 279 658 q 319 658 350 643 q 382 628 402 602 q 422 575 430 539 q 438 503 432 461 q 424 405 390 350 q 355 294 305 240 q 255 186 196 132 q 136 79 79 27 z"},"{":{"x_min":0,"x_max":282,"ha":282,"o":"m 90 281 l 96 316 q 120 317 138 330 q 155 344 166 364 q 178 384 184 408 q 191 431 194 451 l 218 628 q 224 674 236 698 q 247 722 262 732 q 276 743 292 744 q 309 746 327 746 l 370 746 l 366 719 l 311 719 q 280 719 266 694 q 252 670 244 608 l 223 463 q 217 419 208 390 q 198 362 186 344 q 175 326 162 316 q 148 306 134 299 q 146 292 156 282 q 166 271 173 252 q 180 234 182 206 q 183 178 177 135 l 157 -11 q 149 -72 156 -96 q 162 -121 193 -121 l 248 -121 l 244 -148 l 201 -148 q 181 -148 164 -146 q 148 -145 138 -132 q 127 -118 124 -88 q 122 -58 130 -1 l 150 146 q 153 166 153 190 q 153 213 147 233 q 141 253 128 266 q 114 280 90 281 z"},"9":{"x_min":0,"x_max":525,"ha":525,"o":"m 451 429 q 456 466 447 498 q 438 530 417 554 q 396 578 366 592 q 335 606 298 606 q 261 606 226 592 q 191 578 164 554 q 136 530 117 498 q 98 466 93 429 q 88 392 98 360 q 107 328 128 304 q 149 280 180 266 q 211 252 248 252 q 285 252 320 266 q 354 280 382 304 q 409 328 428 360 q 446 392 451 429 z m 478 429 q 468 357 428 295 q 389 233 333 179 q 277 125 212 78 q 146 32 85 -8 q 82 -3 78 4 q 74 10 70 15 q 202 95 278 167 q 355 239 387 290 q 359 260 322 242 q 285 225 243 225 q 200 225 164 241 q 129 257 105 285 q 81 313 70 350 q 59 387 65 429 q 71 471 92 508 q 114 546 146 574 q 178 602 218 618 q 258 634 301 634 q 344 634 380 618 q 415 602 439 574 q 463 546 474 508 q 484 471 478 429 z"}," ":{"x_min":0,"x_max":300,"ha":300,"o":""},"I":{"x_min":0,"x_max":258,"ha":258,"o":"m 38 27 l 115 27 l 207 673 l 129 673 l 133 700 l 321 700 l 317 673 l 234 673 l 143 27 l 226 27 l 223 0 l 35 0 z"},"H":{"x_min":0,"x_max":727,"ha":727,"o":"m 603 700 l 790 700 l 786 673 l 709 673 l 618 27 l 695 27 l 692 0 l 505 0 l 508 27 l 590 27 l 634 339 l 187 339 l 143 27 l 226 27 l 223 0 l 35 0 l 38 27 l 115 27 l 207 673 l 129 673 l 133 700 l 321 700 l 317 673 l 234 673 l 191 366 l 638 366 l 681 673 l 599 673 z"},"4":{"x_min":0,"x_max":510,"ha":510,"o":"m 255 27 l 332 27 l 354 183 l 16 183 l 449 658 l 386 210 l 483 210 l 479 183 l 382 183 l 360 27 l 443 27 l 439 0 l 251 0 z m 409 576 l 77 210 l 358 210 z"},"~":{"x_min":0,"x_max":489,"ha":489,"o":"m 271 494 q 257 511 246 517 q 235 523 221 523 q 213 523 203 521 q 193 519 182 513 q 172 507 163 496 q 154 486 150 470 q 145 471 140 471 q 136 471 132 472 q 135 491 145 504 q 155 518 168 526 q 181 535 196 539 q 211 543 225 543 q 245 543 261 533 q 277 523 291 506 q 304 489 315 483 q 326 477 340 477 q 347 477 358 479 q 368 481 378 487 q 389 493 398 504 q 407 514 411 530 q 416 529 420 529 q 425 529 430 528 q 422 490 394 474 q 365 457 337 457 q 317 457 301 467 q 285 477 271 494 z"},"D":{"x_min":0,"x_max":632,"ha":632,"o":"m 38 27 l 106 27 l 197 673 l 129 673 l 133 700 l 343 700 q 415 700 476 676 q 536 651 578 606 q 619 560 638 495 q 657 430 646 350 q 637 291 608 229 q 579 167 526 116 q 473 65 395 32 q 317 0 211 0 l 35 0 z m 225 673 l 134 27 l 226 27 q 317 27 387 56 q 457 85 506 131 q 554 177 582 234 q 611 292 619 350 q 629 424 612 484 q 595 544 556 586 q 518 628 463 650 q 408 673 342 673 z"},"^":{"x_min":0,"x_max":470,"ha":470,"o":"m 244 660 q 268 615 292 570 q 315 524 339 479 l 314 479 q 295 514 276 548 q 258 582 238 617 l 124 479 l 99 479 q 135 524 172 570 q 208 615 244 660 z"},"0":{"x_min":0,"x_max":616,"ha":616,"o":"m 36 327 q 44 380 68 438 q 91 497 131 546 q 171 595 226 626 q 282 658 354 658 q 424 658 470 626 q 516 593 542 544 q 567 495 574 436 q 580 378 572 324 q 562 253 532 192 q 501 132 458 88 q 414 43 361 18 q 308 -7 254 -7 q 200 -7 156 19 q 111 45 81 90 q 51 134 38 195 q 26 256 36 327 z m 65 328 q 55 259 67 202 q 79 146 106 106 q 134 65 174 42 q 214 20 260 20 q 306 20 352 42 q 399 63 438 103 q 477 143 506 199 q 534 255 544 323 q 554 389 544 445 q 535 501 510 542 q 484 584 443 608 q 402 631 349 631 q 296 631 248 608 q 201 586 164 546 q 126 505 100 450 q 74 394 65 328 z"},"F":{"x_min":0,"x_max":557,"ha":557,"o":"m 38 27 l 115 27 l 206 673 l 129 673 l 133 700 l 620 700 l 598 546 l 571 546 l 589 673 l 234 673 l 191 366 l 534 366 l 530 339 l 187 339 l 143 27 l 226 27 l 223 0 l 35 0 z"},"`":{"x_min":0,"x_max":200,"ha":200,"o":"m 19 612 q 36 579 52 546 q 69 512 86 479 l 62 479 q 43 512 26 546 q 8 579 -9 612 z"},"k":{"x_min":0,"x_max":495,"ha":495,"o":"m 284 27 l 344 27 q 316 73 288 119 q 261 165 234 212 l 156 147 l 139 27 l 222 27 l 219 0 l 35 0 l 38 27 l 111 27 l 209 723 l 137 723 l 141 750 l 241 750 l 161 183 l 360 348 l 292 348 l 296 375 l 475 375 l 472 348 l 396 348 q 358 316 327 290 q 296 263 258 231 q 287 180 318 129 q 348 78 378 27 l 463 27 l 460 0 l 281 0 z"},"u":{"x_min":0,"x_max":528,"ha":528,"o":"m 88 375 l 192 375 l 155 107 q 152 72 172 47 q 191 22 233 20 q 265 20 296 30 q 327 41 352 60 q 377 79 394 106 q 410 132 415 163 l 441 348 l 364 348 l 368 375 l 472 375 l 423 25 l 497 25 l 494 0 l 398 0 l 404 53 l 409 98 q 382 50 334 22 q 286 -7 230 -7 q 176 -7 148 24 q 121 55 126 105 l 161 348 l 84 348 z"},"]":{"x_min":0,"x_max":342,"ha":342,"o":"m 313 746 l 188 -149 l 19 -149 l 23 -122 l 162 -122 l 280 719 l 140 719 l 144 746 z"},"U":{"x_min":0,"x_max":685,"ha":685,"o":"m 134 700 l 322 700 l 318 673 l 235 673 l 173 229 q 159 127 208 73 q 256 19 345 19 q 389 19 428 33 q 467 47 498 74 q 529 100 550 139 q 571 178 578 229 l 640 673 l 558 673 l 561 700 l 749 700 l 745 673 l 668 673 l 605 226 q 597 169 574 125 q 550 81 515 52 q 480 22 436 7 q 391 -8 342 -8 q 292 -8 252 7 q 212 22 186 52 q 159 81 148 125 q 136 169 144 226 l 207 673 l 130 673 z"},"o":{"x_min":0,"x_max":463,"ha":463,"o":"m 63 188 q 69 228 89 264 q 109 300 139 326 q 169 353 206 368 q 244 384 285 384 q 326 384 360 368 q 393 353 416 326 q 440 300 450 264 q 461 228 455 188 q 449 147 429 112 q 409 76 378 50 q 348 24 310 8 q 272 -7 231 -7 q 190 -7 156 8 q 123 24 100 50 q 78 76 68 112 q 57 147 63 188 z m 91 188 q 86 153 94 122 q 103 92 122 70 q 142 47 170 34 q 199 21 234 21 q 268 21 300 34 q 333 47 360 70 q 386 92 404 122 q 421 153 426 188 q 431 223 422 254 q 413 284 394 307 q 374 330 345 343 q 316 356 281 356 q 246 356 214 343 q 182 330 156 307 q 130 284 113 254 q 96 223 91 188 z"},"N":{"x_min":0,"x_max":843,"ha":843,"o":"m 43 27 l 122 27 l 212 673 l 133 673 l 137 700 l 243 700 l 693 58 l 708 32 l 710 64 l 795 673 l 719 673 l 722 700 l 910 700 l 906 673 l 823 673 l 725 -32 l 251 638 l 236 660 l 234 632 l 150 27 l 230 27 l 227 0 l 39 0 z"},"+":{"x_min":0,"x_max":543,"ha":543,"o":"m 226 51 l 250 218 l 84 218 l 88 245 l 254 245 l 277 411 l 305 411 l 282 245 l 448 245 l 444 218 l 278 218 l 254 51 z"},"G":{"x_min":0,"x_max":609,"ha":609,"o":"m 565 298 l 529 40 q 486 17 439 4 q 392 -10 341 -10 q 267 -10 206 18 q 145 46 103 94 q 61 143 42 208 q 23 273 33 347 q 43 421 80 486 q 118 552 174 600 q 229 649 298 678 q 367 706 441 706 q 492 706 536 693 q 579 680 617 656 l 598 633 q 529 679 437 679 q 369 679 306 652 q 242 626 191 581 q 140 536 106 476 q 71 415 61 346 q 52 278 69 218 q 86 158 124 114 q 163 69 218 43 q 274 17 341 17 q 426 17 503 57 l 534 271 l 376 271 l 379 298 z"},"q":{"x_min":0,"x_max":536,"ha":536,"o":"m 315 -223 l 401 -223 l 440 53 q 442 64 444 76 q 447 88 449 100 q 437 77 418 58 q 399 38 375 24 q 351 9 322 0 q 294 -8 264 -8 q 223 -8 190 8 q 156 23 134 49 q 111 75 100 110 q 90 146 96 187 q 102 227 122 263 q 142 299 172 325 q 202 351 240 366 q 278 382 319 382 q 349 382 375 373 q 401 364 421 349 q 441 334 454 314 q 468 293 474 271 q 478 297 483 323 q 488 349 492 375 l 588 375 l 584 348 l 510 348 l 429 -223 l 499 -223 l 496 -250 l 312 -250 z m 124 187 q 119 152 128 122 q 136 91 156 68 q 175 45 204 32 q 232 19 267 19 q 302 19 335 32 q 368 45 394 68 q 420 91 438 122 q 455 152 460 187 q 465 222 456 252 q 447 283 428 306 q 408 328 379 341 q 350 354 315 354 q 280 354 248 341 q 215 328 189 306 q 163 283 146 252 q 129 222 124 187 z"},"d":{"x_min":0,"x_max":535,"ha":535,"o":"m 408 47 q 410 61 412 74 q 414 88 416 102 q 404 80 385 60 q 366 40 342 25 q 318 10 290 2 q 261 -7 230 -7 q 189 -7 156 8 q 122 24 100 50 q 77 76 66 112 q 56 147 62 188 q 68 228 88 264 q 108 300 138 326 q 168 352 206 368 q 244 383 285 383 q 315 383 341 374 q 367 366 387 351 q 407 336 420 316 q 434 296 440 274 q 443 300 446 325 q 449 350 452 376 l 501 723 l 429 723 l 433 750 l 532 750 l 430 27 l 504 27 l 500 0 l 401 0 z m 90 188 q 85 153 94 122 q 102 92 122 70 q 141 47 170 34 q 198 21 233 21 q 268 21 301 34 q 334 47 360 70 q 386 92 404 122 q 421 153 426 188 q 431 223 422 254 q 413 284 394 307 q 374 330 345 343 q 316 356 281 356 q 246 356 214 343 q 181 330 155 307 q 129 284 112 254 q 95 223 90 188 z"},"1":{"x_min":0,"x_max":257,"ha":257,"o":"m 16 27 l 96 27 l 179 623 l 75 623 l 79 650 l 211 650 l 124 27 l 204 27 l 200 0 l 12 0 z"},"5":{"x_min":0,"x_max":543,"ha":543,"o":"m 476 650 l 463 559 l 436 559 l 445 623 l 213 623 l 179 382 q 200 390 222 396 q 243 401 265 401 q 308 401 344 385 q 379 369 404 342 q 428 314 440 277 q 451 240 445 198 q 439 155 417 118 q 395 80 363 52 q 331 24 290 8 q 250 -8 208 -8 q 166 -8 132 7 q 98 22 74 49 l 98 68 q 118 45 146 32 q 175 19 210 19 q 247 19 282 34 q 318 48 346 72 q 374 97 393 130 q 412 162 417 198 q 422 234 412 266 q 402 298 381 322 q 360 346 328 360 q 297 373 260 373 q 225 373 194 362 q 164 350 144 331 l 189 650 z"}}}
